<svg width="89" height="89" viewBox="0 0 89 89" fill="#5A47CC" xmlns="http://www.w3.org/2000/svg">
<g clip-path="url(#clip0)">
<path d="M4.74353 35.027C5.05859 35.1554 5.39199 35.2192 5.72539 35.2192C6.07033 35.2192 6.41527 35.1506 6.73916 35.0134L14.5383 31.7222C15.8645 31.1621 16.4864 29.6329 15.9263 28.3061C15.3667 26.9793 13.8369 26.358 12.5101 26.9175L10.6028 27.7228C16.5218 14.2484 29.9147 5.38862 44.8164 5.38862C61.8543 5.38862 76.7329 16.9095 80.9985 33.4049C81.3027 34.5802 82.3606 35.3604 83.521 35.3604C83.737 35.3604 83.957 35.3333 84.1756 35.2769C85.5696 34.9163 86.4075 33.4938 86.047 32.0998C81.1866 13.3019 64.2315 0.173767 44.8164 0.173767C27.7398 0.173767 12.4035 10.3848 5.71656 25.8847L4.83655 23.7988C4.27636 22.4727 2.74722 21.8507 1.42042 22.4102C0.0936206 22.9704 -0.52768 24.5002 0.0318301 25.8263L3.32302 33.6255C3.59192 34.2625 4.10254 34.767 4.74353 35.027Z" />
<path d="M88.6206 62.991L85.3294 55.1925C85.0605 54.5549 84.5492 54.051 83.9089 53.7903C83.2679 53.5302 82.5501 53.535 81.9132 53.8039L74.114 57.0958C72.7879 57.6553 72.1659 59.1851 72.7261 60.5119C73.2856 61.8387 74.8155 62.46 76.1423 61.8998L78.3253 60.9784C72.5543 74.814 58.974 83.9577 43.8367 83.9577C26.7981 83.9577 11.9195 72.4368 7.6539 55.9414C7.29335 54.5467 5.87081 53.7102 4.47678 54.0694C3.08276 54.4299 2.24486 55.8525 2.60541 57.2465C7.46582 76.0444 24.4209 89.1725 43.8367 89.1725C61.009 89.1725 76.422 78.846 83.0479 63.1988L83.8158 65.0185C84.2361 66.0146 85.2024 66.6129 86.2196 66.6129C86.557 66.6129 86.9013 66.547 87.232 66.4071C88.5588 65.8469 89.1801 64.3178 88.6206 62.991Z" />
<path d="M39.0977 73.3739C39.3863 73.4784 39.6851 73.528 39.9804 73.528C40.743 73.528 41.4851 73.1932 41.9903 72.5821L63.8329 46.1609C64.4766 45.3821 64.6124 44.3024 64.1826 43.3885C63.7521 42.4752 62.8334 41.8919 61.8237 41.8919H52.3222V18.2519C52.3222 17.1519 51.6324 16.1707 50.5975 15.798C49.5634 15.4259 48.4064 15.743 47.7049 16.5904L25.8623 43.0116C25.2186 43.7898 25.0828 44.8701 25.5126 45.7834C25.9431 46.6973 26.8625 47.2806 27.8722 47.2806H37.3737V70.9206C37.373 72.0206 38.0629 73.0018 39.0977 73.3739ZM33.4103 42.0657L47.1074 25.4977V44.4993C47.1074 45.9395 48.2746 47.1068 49.7148 47.1068H56.2843L42.5879 63.6748V44.6732C42.5879 43.233 41.42 42.0657 39.9804 42.0657H33.4103Z" />
</g>
<defs>
<clipPath id="clip0">
<rect width="89" height="89" fill="white"/>
</clipPath>
</defs>
</svg>
