<?xml version="1.0" encoding="iso-8859-1"?>
<!-- Generator: Adobe Illustrator 19.0.0, SVG Export Plug-In . SVG Version: 6.00 Build 0)  -->
<svg version="1.1" id="Capa_1" xmlns="http://www.w3.org/2000/svg" xmlns:xlink="http://www.w3.org/1999/xlink" x="0px" y="0px"
	 viewBox="0 0 512 512" style="enable-background:new 0 0 512 512;" xml:space="preserve">
<path style="fill:#1689FC;" d="M197.989,101.7l-63.604-63.602C117.588,21,87.588,21,70.489,38.099L60.287,48.6
	C59.924,48.963,49.191,59.532,49.191,60c-5.402,5.7-5.105,15,0.597,20.4l105.901,105.899c5.401,6.006,15.597,6.002,21.002,0
	L197.989,165C215.102,148.478,216.145,119.226,197.989,101.7z"/>
<path style="fill:#136EF1;" d="M473.688,377.978l-63.6-63.6c-16.798-17.098-46.498-17.098-63.3,0l-10.499,10.801l-10.8,10.499
	c-5.999,5.7-5.999,15.3,0,21L431.69,462.877c5.184,5.772,15.059,6.236,21.299,0l10.199-10.499l10.499-10.8
	C491.39,424.18,491.39,395.379,473.688,377.978z"/>
<path style="fill:#17ACE8;" d="M463.188,452.38l-10.199,10.499c-81.899,73.801-177.601,56.1-231.599,1.8L47.689,290.4
	c-63.303-63.001-63.303-165.901,0-229.2c0.3,0,2.699-2.401,2.699-2.699l9.899-9.901l126.899,126.899l-5.999,6.301l-4.497,4.499
	c-9.602,10.501-17.402,17.1-17.402,31.8c0,9.3,3.6,17.701,9.902,24.3l50.098,50.101l50.098,50.679c12.902,12.9,35.402,12.9,48.303,0
	l7.8-7.5l10.8-10.499L463.188,452.38z"/>
<g>
	<path style="fill:#1DE8F1;" d="M511.788,255c0,19.799-30,19.799-30,0c0-62.1-25.203-118.2-65.999-159
		c-40.803-40.801-96.899-66-159.001-66c-19.797,0-19.797-30,0-30c70.203,0,134.099,28.5,180.3,74.7S511.788,184.799,511.788,255z"/>
	<path style="fill:#1DE8F1;" d="M451.788,255c0,19.799-30,19.799-30,0c0-45.601-18.6-86.7-48.3-116.7c-30-29.7-71.1-48.3-116.7-48.3
		c-19.797,0-19.797-30,0-30c53.701,0,102.598,21.899,137.703,57.299C429.889,152.399,451.788,201.299,451.788,255z"/>
	<path style="fill:#1DE8F1;" d="M391.788,255c0,19.799-30,19.799-30,0c0-28.801-11.7-55.201-30.901-74.101
		C311.991,161.7,285.587,150,256.788,150c-19.797,0-19.797-30,0-30c37.2,0,70.8,15,95.398,39.6
		C376.788,184.2,391.788,217.8,391.788,255z"/>
	<path style="fill:#1DE8F1;" d="M331.788,255c0,19.799-30,19.799-30,0c0-12.601-5.098-23.701-13.198-31.8
		c-8.101-8.101-19.204-13.2-31.802-13.2c-19.797,0-19.797-30,0-30c20.698,0,39.602,8.399,53.101,21.899S331.788,234.3,331.788,255z"
		/>
</g>
<g>
	<path style="fill:#1BD9DE;" d="M301.788,255c0-12.601-5.098-23.701-13.198-31.8l21.299-21.301
		c13.499,13.5,21.899,32.401,21.899,53.101C331.788,274.799,301.788,274.799,301.788,255z"/>
	<path style="fill:#1BD9DE;" d="M361.788,255c0-28.801-11.7-55.201-30.901-74.101l21.299-21.299
		c24.602,24.6,39.602,58.2,39.602,95.4C391.788,274.799,361.788,274.799,361.788,255z"/>
	<path style="fill:#1BD9DE;" d="M421.788,255c0-45.601-18.6-86.7-48.3-116.7l21.002-21c35.398,35.099,57.297,84,57.297,137.701
		C451.788,274.799,421.788,274.799,421.788,255z"/>
</g>
<path style="fill:#1689FC;" d="M336.289,325.18l126.899,127.2l-10.199,10.499c-81.899,73.801-177.601,56.1-231.599,1.8
	l-86.704-87.28c0-0.298,0-0.298,0-0.298l84.602-84.6l50.098,50.679c12.902,12.9,35.402,12.9,48.303,0l7.8-7.5L336.289,325.18z"/>
<path style="fill:#1BD9DE;" d="M511.788,255c0,19.799-30,19.799-30,0c0-62.1-25.203-118.2-65.999-159l21.3-21.3
	C483.29,120.899,511.788,184.799,511.788,255z"/>
<g>
</g>
<g>
</g>
<g>
</g>
<g>
</g>
<g>
</g>
<g>
</g>
<g>
</g>
<g>
</g>
<g>
</g>
<g>
</g>
<g>
</g>
<g>
</g>
<g>
</g>
<g>
</g>
<g>
</g>
</svg>
