<svg height="511pt" viewBox="1 0 511.99943 511" width="511pt" xmlns="http://www.w3.org/2000/svg"><path d="m28.289062 201.003906c1.8125.738282 3.730469 1.105469 5.648438 1.105469 1.984375 0 3.96875-.394531 5.832031-1.183594l44.867188-18.933593c7.628906-3.222657 11.207031-12.019532 7.984375-19.652344-3.21875-7.632813-12.019532-11.207032-19.652344-7.988282l-10.972656 4.632813c34.050781-77.515625 111.097656-128.484375 196.824218-128.484375 98.015626 0 183.609376 66.277344 208.148438 161.171875 1.75 6.761719 7.835938 11.25 14.511719 11.25 1.242187 0 2.507812-.15625 3.765625-.480469 8.019531-2.074218 12.839844-10.257812 10.765625-18.277344-27.960938-108.140624-125.5-183.664062-237.191407-183.664062-98.238281 0-186.464843 58.742188-224.933593 147.910156l-5.0625-12c-3.222657-7.628906-12.019531-11.207031-19.652344-7.988281-7.632813 3.222656-11.207031 12.023437-7.988281 19.652344l18.933594 44.867187c1.546874 3.664063 4.484374 6.566406 8.171874 8.0625zm0 0"/><path d="m510.816406 361.875-18.933594-44.863281c-1.546874-3.667969-4.488281-6.566407-8.171874-8.066407-3.6875-1.496093-7.816407-1.46875-11.480469.078126l-44.867188 18.9375c-7.628906 3.21875-11.207031 12.019531-7.984375 19.652343 3.21875 7.632813 12.019532 11.207031 19.652344 7.984375l12.558594-5.300781c-33.199219 79.59375-111.324219 132.195313-198.40625 132.195313-98.019532 0-183.613282-66.277344-208.152344-161.171876-2.074219-8.023437-10.257812-12.835937-18.277344-10.769531-8.019531 2.074219-12.839844 10.257813-10.765625 18.277344 27.960938 108.140625 125.5 183.664063 237.195313 183.664063 98.789062 0 187.457031-59.40625 225.574218-149.421876l4.417969 10.46875c2.417969 5.730469 7.976563 9.171876 13.828125 9.171876 1.941406 0 3.921875-.378907 5.824219-1.183594 7.632813-3.222656 11.207031-12.019532 7.988281-19.652344zm0 0"/><path d="m225.921875 421.605469c1.660156.601562 3.378906.886719 5.078125.886719 4.386719 0 8.65625-1.925782 11.5625-5.441407l125.65625-151.996093c3.703125-4.480469 4.484375-10.691407 2.011719-15.949219-2.476563-5.253907-7.761719-8.609375-13.570313-8.609375h-54.660156v-135.996094c0-6.328125-3.96875-11.972656-9.921875-14.117188-5.949219-2.140624-12.605469-.316406-16.640625 4.558594l-125.65625 151.996094c-3.703125 4.476562-4.484375 10.691406-2.011719 15.945312 2.476563 5.257813 7.765625 8.613282 13.574219 8.613282h54.660156v135.996094c-.003906 6.328124 3.964844 11.972656 9.917969 14.113281zm-32.71875-180.109375 78.796875-95.3125v109.3125c0 8.285156 6.714844 15 15 15h37.792969l-78.792969 95.3125v-109.3125c0-8.285156-6.71875-15-15-15zm0 0"/></svg>