<?xml version="1.0" encoding="iso-8859-1"?>
<!-- Generator: Adobe Illustrator 19.0.0, SVG Export Plug-In . SVG Version: 6.00 Build 0)  -->
<svg version="1.1" id="Layer_1" xmlns="http://www.w3.org/2000/svg" xmlns:xlink="http://www.w3.org/1999/xlink" x="0px" y="0px"
	 viewBox="0 0 512.005 512.005" style="enable-background:new 0 0 512.005 512.005;" xml:space="preserve">
<g>
	<g>
		<g>
			<path d="M440.888,64.609l-181.333-64c-2.292-0.813-4.812-0.813-7.104,0l-181.333,64c-4.26,1.51-7.115,5.542-7.115,10.063v128
				c0,165.646,24.563,226.188,187.198,308.188c1.51,0.76,3.156,1.146,4.802,1.146c1.646,0,3.292-0.385,4.802-1.146
				c162.635-82,187.198-142.542,187.198-308.188v-128C448.003,70.151,445.148,66.12,440.888,64.609z M426.669,202.672
				c0,158.656-20.229,210.01-170.667,286.708C105.565,412.682,85.336,361.328,85.336,202.672V82.224l170.667-60.24l170.667,60.24
				V202.672z"/>
			<path d="M181.336,181.339v10.667c-11.76,0-21.333,9.573-21.333,21.333v106.667c0,11.76,9.573,21.333,21.333,21.333h149.333
				c11.76,0,21.333-9.573,21.333-21.333V213.339c0-11.76-9.573-21.333-21.333-21.333v-10.667c0-41.167-33.5-74.667-74.667-74.667
				S181.336,140.172,181.336,181.339z M330.669,320.005H181.336V213.339c0,0-0.01,0-0.021,0l0.021-10.667v10.667h149.333V320.005z
				 M309.336,181.339v10.667H202.669v-10.667c0-29.406,23.927-53.333,53.333-53.333S309.336,151.932,309.336,181.339z"/>
			<path d="M245.336,274.059v13.947c0,5.896,4.771,10.667,10.667,10.667c5.896,0,10.667-4.771,10.667-10.667v-13.947
				c6.258-3.724,10.667-10.262,10.667-18.053c0-11.76-9.573-21.333-21.333-21.333c-11.76,0-21.333,9.573-21.333,21.333
				C234.669,263.797,239.078,270.335,245.336,274.059z"/>
		</g>
	</g>
</g>
<g>
</g>
<g>
</g>
<g>
</g>
<g>
</g>
<g>
</g>
<g>
</g>
<g>
</g>
<g>
</g>
<g>
</g>
<g>
</g>
<g>
</g>
<g>
</g>
<g>
</g>
<g>
</g>
<g>
</g>
</svg>
