<svg width="35" height="35" viewBox="0 0 35 35" fill="none" xmlns="http://www.w3.org/2000/svg">
<g clip-path="url(#clip0)">
<path d="M20.4165 9.47926C20.4165 13.5063 17.1518 16.7707 13.1248 16.7707C9.0977 16.7707 5.83301 13.5063 5.83301 9.47926C5.83301 5.45219 9.0977 2.1875 13.1248 2.1875C17.1518 2.1875 20.4165 5.45219 20.4165 9.47926Z" fill="#607D8B"/>
<path d="M19.323 19.6875H6.92699C3.10768 19.6875 0 22.7952 0 26.6145V31.7188C0 32.3225 0.489998 32.8125 1.09375 32.8125H25.1562C25.76 32.8125 26.25 32.3225 26.25 31.7188V26.6145C26.25 22.7952 23.1423 19.6875 19.323 19.6875Z" fill="#607D8B"/>
<path d="M31.3545 16.7707H21.8752C21.0688 16.7707 20.417 16.1176 20.417 15.3125C20.417 14.5074 21.0688 13.8542 21.8752 13.8542H31.3545C32.1609 13.8542 32.8127 14.5074 32.8127 15.3125C32.8127 16.1176 32.1609 16.7707 31.3545 16.7707Z" fill="#42A5F5"/>
<path d="M34.6518 14.5103L29.5475 9.77085C29.3419 9.57966 29.0735 9.48059 28.8038 9.48059C28.0805 9.48059 27.7085 10.0961 27.7085 10.573V20.052C27.7085 20.6587 28.2014 21.1457 28.8022 21.1457C29.0735 21.1457 29.3406 21.0453 29.5475 20.8541L34.6518 16.1147C34.8734 15.9074 35.0003 15.6158 35.0003 15.3125C35.0003 15.0092 34.8734 14.7176 34.6518 14.5103Z" fill="#42A5F5"/>
</g>
<defs>
<clipPath id="clip0">
<rect width="35" height="35" fill="white"/>
</clipPath>
</defs>
</svg>
