<svg width="35" height="35" viewBox="0 0 35 35" fill="none" xmlns="http://www.w3.org/2000/svg">
<g clip-path="url(#clip0)">
<path d="M19.6875 26.6375C19.6875 24.6687 20.8937 22.9784 22.6043 22.2625V21.8977C22.6043 21.0112 22.8184 20.1799 23.1744 19.4258C22.0718 18.6864 20.7476 18.252 19.323 18.252H6.92699C3.10768 18.252 0 21.3596 0 25.1789V30.2832C0 30.887 0.489998 31.377 1.09375 31.377H19.6875V26.6375Z" fill="#607D8B"/>
<path d="M20.4165 8.04371C20.4165 12.0708 17.1518 15.3352 13.1248 15.3352C9.0977 15.3352 5.83301 12.0708 5.83301 8.04371C5.83301 4.01665 9.0977 0.751953 13.1248 0.751953C17.1518 0.751953 20.4165 4.01665 20.4165 8.04371Z" fill="#607D8B"/>
<path d="M32.448 24.0852H24.427C23.0198 24.0852 21.875 25.23 21.875 26.6375V31.7415C21.875 33.149 23.0198 34.2937 24.427 34.2937H32.448C33.8552 34.2937 35 33.149 35 31.7415V26.6375C35 25.23 33.8552 24.0852 32.448 24.0852Z" fill="#FFC107"/>
<path d="M28.4377 18.252C26.4267 18.252 24.792 19.8883 24.792 21.8977V24.0852H26.9795V21.8977C26.9795 21.0942 27.6326 20.4395 28.4377 20.4395C29.2428 20.4395 29.896 21.0942 29.896 21.8977V24.0852H32.0835V21.8977C32.0835 19.8883 30.4487 18.252 28.4377 18.252Z" fill="#607D8B"/>
</g>
<defs>
<clipPath id="clip0">
<rect width="35" height="35" fill="white"/>
</clipPath>
</defs>
</svg>
